<mxfile host="app.diagrams.net" modified="2024-04-14T07:49:06.736Z" agent="Mozilla/5.0 (Windows NT 10.0; Win64; x64) AppleWebKit/537.36 (KHTML, like Gecko) Chrome/123.0.0.0 Safari/537.36" etag="TpfWs-frTgibC5Euulb4" version="24.2.3" type="device">
  <diagram name="Page-1" id="Nv2llt3EmTZvYOIjRS1g">
    <mxGraphModel dx="2518" dy="2424" grid="1" gridSize="10" guides="1" tooltips="1" connect="1" arrows="1" fold="1" page="1" pageScale="1" pageWidth="850" pageHeight="1100" math="0" shadow="0">
      <root>
        <mxCell id="0" />
        <mxCell id="1" parent="0" />
        <mxCell id="njGRdfHwuPuBK8i6Ekrx-1" value="Every 6 A.M" style="shape=umlLifeline;perimeter=lifelinePerimeter;whiteSpace=wrap;container=1;dropTarget=0;collapsible=0;recursiveResize=0;outlineConnect=0;portConstraint=eastwest;newEdgeStyle={&quot;edgeStyle&quot;:&quot;elbowEdgeStyle&quot;,&quot;elbow&quot;:&quot;vertical&quot;,&quot;curved&quot;:0,&quot;rounded&quot;:0};participant=umlActor;verticalAlign=bottom;labelPosition=center;verticalLabelPosition=top;align=center;size=65;" vertex="1" parent="1">
          <mxGeometry x="20" y="20" width="35" height="1728" as="geometry" />
        </mxCell>
        <mxCell id="njGRdfHwuPuBK8i6Ekrx-2" value="ReportHandler" style="shape=umlLifeline;perimeter=lifelinePerimeter;whiteSpace=wrap;container=1;dropTarget=0;collapsible=0;recursiveResize=0;outlineConnect=0;portConstraint=eastwest;newEdgeStyle={&quot;edgeStyle&quot;:&quot;elbowEdgeStyle&quot;,&quot;elbow&quot;:&quot;vertical&quot;,&quot;curved&quot;:0,&quot;rounded&quot;:0};size=65;" vertex="1" parent="1">
          <mxGeometry x="220" y="20" width="150" height="1728" as="geometry" />
        </mxCell>
        <mxCell id="njGRdfHwuPuBK8i6Ekrx-62" value="" style="points=[];perimeter=orthogonalPerimeter;outlineConnect=0;targetShapes=umlLifeline;portConstraint=eastwest;newEdgeStyle={&quot;edgeStyle&quot;:&quot;elbowEdgeStyle&quot;,&quot;elbow&quot;:&quot;vertical&quot;,&quot;curved&quot;:0,&quot;rounded&quot;:0}" vertex="1" parent="njGRdfHwuPuBK8i6Ekrx-2">
          <mxGeometry x="70" y="140" width="10" height="1530" as="geometry" />
        </mxCell>
        <mxCell id="njGRdfHwuPuBK8i6Ekrx-3" value="BlueprintPersistenceService" style="shape=umlLifeline;perimeter=lifelinePerimeter;whiteSpace=wrap;container=1;dropTarget=0;collapsible=0;recursiveResize=0;outlineConnect=0;portConstraint=eastwest;newEdgeStyle={&quot;edgeStyle&quot;:&quot;elbowEdgeStyle&quot;,&quot;elbow&quot;:&quot;vertical&quot;,&quot;curved&quot;:0,&quot;rounded&quot;:0};size=65;" vertex="1" parent="1">
          <mxGeometry x="420" y="20" width="212" height="1728" as="geometry" />
        </mxCell>
        <mxCell id="njGRdfHwuPuBK8i6Ekrx-4" value="" style="points=[];perimeter=orthogonalPerimeter;outlineConnect=0;targetShapes=umlLifeline;portConstraint=eastwest;newEdgeStyle={&quot;edgeStyle&quot;:&quot;elbowEdgeStyle&quot;,&quot;elbow&quot;:&quot;vertical&quot;,&quot;curved&quot;:0,&quot;rounded&quot;:0}" vertex="1" parent="njGRdfHwuPuBK8i6Ekrx-3">
          <mxGeometry x="101" y="159" width="10" height="156" as="geometry" />
        </mxCell>
        <mxCell id="njGRdfHwuPuBK8i6Ekrx-5" value="ReportSchedulePersistenceService" style="shape=umlLifeline;perimeter=lifelinePerimeter;whiteSpace=wrap;container=1;dropTarget=0;collapsible=0;recursiveResize=0;outlineConnect=0;portConstraint=eastwest;newEdgeStyle={&quot;edgeStyle&quot;:&quot;elbowEdgeStyle&quot;,&quot;elbow&quot;:&quot;vertical&quot;,&quot;curved&quot;:0,&quot;rounded&quot;:0};size=65;" vertex="1" parent="1">
          <mxGeometry x="682" y="20" width="259" height="1728" as="geometry" />
        </mxCell>
        <mxCell id="njGRdfHwuPuBK8i6Ekrx-6" value="" style="points=[];perimeter=orthogonalPerimeter;outlineConnect=0;targetShapes=umlLifeline;portConstraint=eastwest;newEdgeStyle={&quot;edgeStyle&quot;:&quot;elbowEdgeStyle&quot;,&quot;elbow&quot;:&quot;vertical&quot;,&quot;curved&quot;:0,&quot;rounded&quot;:0}" vertex="1" parent="njGRdfHwuPuBK8i6Ekrx-5">
          <mxGeometry x="125" y="465" width="10" height="155" as="geometry" />
        </mxCell>
        <mxCell id="njGRdfHwuPuBK8i6Ekrx-7" value="ReportService" style="shape=umlLifeline;perimeter=lifelinePerimeter;whiteSpace=wrap;container=1;dropTarget=0;collapsible=0;recursiveResize=0;outlineConnect=0;portConstraint=eastwest;newEdgeStyle={&quot;edgeStyle&quot;:&quot;elbowEdgeStyle&quot;,&quot;elbow&quot;:&quot;vertical&quot;,&quot;curved&quot;:0,&quot;rounded&quot;:0};size=65;" vertex="1" parent="1">
          <mxGeometry x="991" y="20" width="150" height="1728" as="geometry" />
        </mxCell>
        <mxCell id="njGRdfHwuPuBK8i6Ekrx-8" value="" style="points=[];perimeter=orthogonalPerimeter;outlineConnect=0;targetShapes=umlLifeline;portConstraint=eastwest;newEdgeStyle={&quot;edgeStyle&quot;:&quot;elbowEdgeStyle&quot;,&quot;elbow&quot;:&quot;vertical&quot;,&quot;curved&quot;:0,&quot;rounded&quot;:0}" vertex="1" parent="njGRdfHwuPuBK8i6Ekrx-7">
          <mxGeometry x="70" y="719" width="10" height="261" as="geometry" />
        </mxCell>
        <mxCell id="njGRdfHwuPuBK8i6Ekrx-9" value="" style="points=[];perimeter=orthogonalPerimeter;outlineConnect=0;targetShapes=umlLifeline;portConstraint=eastwest;newEdgeStyle={&quot;edgeStyle&quot;:&quot;elbowEdgeStyle&quot;,&quot;elbow&quot;:&quot;vertical&quot;,&quot;curved&quot;:0,&quot;rounded&quot;:0}" vertex="1" parent="njGRdfHwuPuBK8i6Ekrx-7">
          <mxGeometry x="70" y="1031" width="10" height="259" as="geometry" />
        </mxCell>
        <mxCell id="njGRdfHwuPuBK8i6Ekrx-10" value="" style="points=[];perimeter=orthogonalPerimeter;outlineConnect=0;targetShapes=umlLifeline;portConstraint=eastwest;newEdgeStyle={&quot;edgeStyle&quot;:&quot;elbowEdgeStyle&quot;,&quot;elbow&quot;:&quot;vertical&quot;,&quot;curved&quot;:0,&quot;rounded&quot;:0}" vertex="1" parent="njGRdfHwuPuBK8i6Ekrx-7">
          <mxGeometry x="70" y="1447" width="10" height="153" as="geometry" />
        </mxCell>
        <mxCell id="njGRdfHwuPuBK8i6Ekrx-11" value="ReportExcelProcessor" style="shape=umlLifeline;perimeter=lifelinePerimeter;whiteSpace=wrap;container=1;dropTarget=0;collapsible=0;recursiveResize=0;outlineConnect=0;portConstraint=eastwest;newEdgeStyle={&quot;edgeStyle&quot;:&quot;elbowEdgeStyle&quot;,&quot;elbow&quot;:&quot;vertical&quot;,&quot;curved&quot;:0,&quot;rounded&quot;:0};size=65;" vertex="1" parent="1">
          <mxGeometry x="1191" y="20" width="171" height="1728" as="geometry" />
        </mxCell>
        <mxCell id="njGRdfHwuPuBK8i6Ekrx-12" value="" style="points=[];perimeter=orthogonalPerimeter;outlineConnect=0;targetShapes=umlLifeline;portConstraint=eastwest;newEdgeStyle={&quot;edgeStyle&quot;:&quot;elbowEdgeStyle&quot;,&quot;elbow&quot;:&quot;vertical&quot;,&quot;curved&quot;:0,&quot;rounded&quot;:0}" vertex="1" parent="njGRdfHwuPuBK8i6Ekrx-11">
          <mxGeometry x="81" y="1343" width="10" height="57" as="geometry" />
        </mxCell>
        <mxCell id="njGRdfHwuPuBK8i6Ekrx-13" value="PlcConnector" style="shape=umlLifeline;perimeter=lifelinePerimeter;whiteSpace=wrap;container=1;dropTarget=0;collapsible=0;recursiveResize=0;outlineConnect=0;portConstraint=eastwest;newEdgeStyle={&quot;edgeStyle&quot;:&quot;elbowEdgeStyle&quot;,&quot;elbow&quot;:&quot;vertical&quot;,&quot;curved&quot;:0,&quot;rounded&quot;:0};size=65;" vertex="1" parent="1">
          <mxGeometry x="1412" y="20" width="150" height="1728" as="geometry" />
        </mxCell>
        <mxCell id="njGRdfHwuPuBK8i6Ekrx-14" value="BlueprintRepository" style="shape=umlLifeline;perimeter=lifelinePerimeter;whiteSpace=wrap;container=1;dropTarget=0;collapsible=0;recursiveResize=0;outlineConnect=0;portConstraint=eastwest;newEdgeStyle={&quot;edgeStyle&quot;:&quot;elbowEdgeStyle&quot;,&quot;elbow&quot;:&quot;vertical&quot;,&quot;curved&quot;:0,&quot;rounded&quot;:0};size=65;" vertex="1" parent="1">
          <mxGeometry x="1612" y="20" width="159" height="1728" as="geometry" />
        </mxCell>
        <mxCell id="njGRdfHwuPuBK8i6Ekrx-15" value="" style="points=[];perimeter=orthogonalPerimeter;outlineConnect=0;targetShapes=umlLifeline;portConstraint=eastwest;newEdgeStyle={&quot;edgeStyle&quot;:&quot;elbowEdgeStyle&quot;,&quot;elbow&quot;:&quot;vertical&quot;,&quot;curved&quot;:0,&quot;rounded&quot;:0}" vertex="1" parent="njGRdfHwuPuBK8i6Ekrx-14">
          <mxGeometry x="75" y="211" width="10" height="49" as="geometry" />
        </mxCell>
        <mxCell id="njGRdfHwuPuBK8i6Ekrx-16" value="ReportScheduleRepository" style="shape=umlLifeline;perimeter=lifelinePerimeter;whiteSpace=wrap;container=1;dropTarget=0;collapsible=0;recursiveResize=0;outlineConnect=0;portConstraint=eastwest;newEdgeStyle={&quot;edgeStyle&quot;:&quot;elbowEdgeStyle&quot;,&quot;elbow&quot;:&quot;vertical&quot;,&quot;curved&quot;:0,&quot;rounded&quot;:0};size=65;" vertex="1" parent="1">
          <mxGeometry x="1821" y="20" width="207" height="1728" as="geometry" />
        </mxCell>
        <mxCell id="njGRdfHwuPuBK8i6Ekrx-17" value="" style="points=[];perimeter=orthogonalPerimeter;outlineConnect=0;targetShapes=umlLifeline;portConstraint=eastwest;newEdgeStyle={&quot;edgeStyle&quot;:&quot;elbowEdgeStyle&quot;,&quot;elbow&quot;:&quot;vertical&quot;,&quot;curved&quot;:0,&quot;rounded&quot;:0}" vertex="1" parent="njGRdfHwuPuBK8i6Ekrx-16">
          <mxGeometry x="99" y="517" width="10" height="53" as="geometry" />
        </mxCell>
        <mxCell id="njGRdfHwuPuBK8i6Ekrx-18" value="ReportPersistenceService" style="shape=umlLifeline;perimeter=lifelinePerimeter;whiteSpace=wrap;container=1;dropTarget=0;collapsible=0;recursiveResize=0;outlineConnect=0;portConstraint=eastwest;newEdgeStyle={&quot;edgeStyle&quot;:&quot;elbowEdgeStyle&quot;,&quot;elbow&quot;:&quot;vertical&quot;,&quot;curved&quot;:0,&quot;rounded&quot;:0};size=65;" vertex="1" parent="1">
          <mxGeometry x="2078" y="20" width="195" height="1728" as="geometry" />
        </mxCell>
        <mxCell id="njGRdfHwuPuBK8i6Ekrx-19" value="" style="points=[];perimeter=orthogonalPerimeter;outlineConnect=0;targetShapes=umlLifeline;portConstraint=eastwest;newEdgeStyle={&quot;edgeStyle&quot;:&quot;elbowEdgeStyle&quot;,&quot;elbow&quot;:&quot;vertical&quot;,&quot;curved&quot;:0,&quot;rounded&quot;:0}" vertex="1" parent="njGRdfHwuPuBK8i6Ekrx-18">
          <mxGeometry x="93" y="771" width="10" height="159" as="geometry" />
        </mxCell>
        <mxCell id="njGRdfHwuPuBK8i6Ekrx-20" value="" style="points=[];perimeter=orthogonalPerimeter;outlineConnect=0;targetShapes=umlLifeline;portConstraint=eastwest;newEdgeStyle={&quot;edgeStyle&quot;:&quot;elbowEdgeStyle&quot;,&quot;elbow&quot;:&quot;vertical&quot;,&quot;curved&quot;:0,&quot;rounded&quot;:0}" vertex="1" parent="njGRdfHwuPuBK8i6Ekrx-18">
          <mxGeometry x="93" y="1499" width="10" height="51" as="geometry" />
        </mxCell>
        <mxCell id="njGRdfHwuPuBK8i6Ekrx-21" value="ReportRepository" style="shape=umlLifeline;perimeter=lifelinePerimeter;whiteSpace=wrap;container=1;dropTarget=0;collapsible=0;recursiveResize=0;outlineConnect=0;portConstraint=eastwest;newEdgeStyle={&quot;edgeStyle&quot;:&quot;elbowEdgeStyle&quot;,&quot;elbow&quot;:&quot;vertical&quot;,&quot;curved&quot;:0,&quot;rounded&quot;:0};size=65;" vertex="1" parent="1">
          <mxGeometry x="2323" y="20" width="150" height="1728" as="geometry" />
        </mxCell>
        <mxCell id="njGRdfHwuPuBK8i6Ekrx-22" value="" style="points=[];perimeter=orthogonalPerimeter;outlineConnect=0;targetShapes=umlLifeline;portConstraint=eastwest;newEdgeStyle={&quot;edgeStyle&quot;:&quot;elbowEdgeStyle&quot;,&quot;elbow&quot;:&quot;vertical&quot;,&quot;curved&quot;:0,&quot;rounded&quot;:0}" vertex="1" parent="njGRdfHwuPuBK8i6Ekrx-21">
          <mxGeometry x="70" y="823" width="10" height="57" as="geometry" />
        </mxCell>
        <mxCell id="njGRdfHwuPuBK8i6Ekrx-23" value="ReportRowPersistenceService" style="shape=umlLifeline;perimeter=lifelinePerimeter;whiteSpace=wrap;container=1;dropTarget=0;collapsible=0;recursiveResize=0;outlineConnect=0;portConstraint=eastwest;newEdgeStyle={&quot;edgeStyle&quot;:&quot;elbowEdgeStyle&quot;,&quot;elbow&quot;:&quot;vertical&quot;,&quot;curved&quot;:0,&quot;rounded&quot;:0};size=65;" vertex="1" parent="1">
          <mxGeometry x="2523" y="20" width="225" height="1728" as="geometry" />
        </mxCell>
        <mxCell id="njGRdfHwuPuBK8i6Ekrx-24" value="" style="points=[];perimeter=orthogonalPerimeter;outlineConnect=0;targetShapes=umlLifeline;portConstraint=eastwest;newEdgeStyle={&quot;edgeStyle&quot;:&quot;elbowEdgeStyle&quot;,&quot;elbow&quot;:&quot;vertical&quot;,&quot;curved&quot;:0,&quot;rounded&quot;:0}" vertex="1" parent="njGRdfHwuPuBK8i6Ekrx-23">
          <mxGeometry x="108" y="1083" width="10" height="136" as="geometry" />
        </mxCell>
        <mxCell id="njGRdfHwuPuBK8i6Ekrx-25" value="ReportRowRepository" style="shape=umlLifeline;perimeter=lifelinePerimeter;whiteSpace=wrap;container=1;dropTarget=0;collapsible=0;recursiveResize=0;outlineConnect=0;portConstraint=eastwest;newEdgeStyle={&quot;edgeStyle&quot;:&quot;elbowEdgeStyle&quot;,&quot;elbow&quot;:&quot;vertical&quot;,&quot;curved&quot;:0,&quot;rounded&quot;:0};size=65;" vertex="1" parent="1">
          <mxGeometry x="2798" y="20" width="173" height="1728" as="geometry" />
        </mxCell>
        <mxCell id="njGRdfHwuPuBK8i6Ekrx-26" value="" style="points=[];perimeter=orthogonalPerimeter;outlineConnect=0;targetShapes=umlLifeline;portConstraint=eastwest;newEdgeStyle={&quot;edgeStyle&quot;:&quot;elbowEdgeStyle&quot;,&quot;elbow&quot;:&quot;vertical&quot;,&quot;curved&quot;:0,&quot;rounded&quot;:0}" vertex="1" parent="njGRdfHwuPuBK8i6Ekrx-25">
          <mxGeometry x="82" y="1135" width="10" height="55" as="geometry" />
        </mxCell>
        <mxCell id="njGRdfHwuPuBK8i6Ekrx-27" value="loop" style="shape=umlFrame;dashed=1;pointerEvents=0;dropTarget=0;strokeColor=#B3B3B3;height=20;width=40" vertex="1" parent="1">
          <mxGeometry x="220" y="661" width="2680" height="982" as="geometry" />
        </mxCell>
        <mxCell id="njGRdfHwuPuBK8i6Ekrx-28" value="[for each reportTypes]" style="text;strokeColor=none;fillColor=none;align=center;verticalAlign=middle;whiteSpace=wrap;" vertex="1" parent="njGRdfHwuPuBK8i6Ekrx-27">
          <mxGeometry x="40.916030534351144" width="2639.083969465649" height="20" as="geometry" />
        </mxCell>
        <mxCell id="njGRdfHwuPuBK8i6Ekrx-29" value="opt" style="shape=umlFrame;dashed=1;pointerEvents=0;dropTarget=0;strokeColor=#B3B3B3;height=20;width=30" vertex="1" parent="1">
          <mxGeometry x="160" y="355" width="2750" height="1298" as="geometry" />
        </mxCell>
        <mxCell id="njGRdfHwuPuBK8i6Ekrx-30" value="[checkerAddress is not empty]" style="text;strokeColor=none;fillColor=none;align=center;verticalAlign=middle;whiteSpace=wrap;" vertex="1" parent="njGRdfHwuPuBK8i6Ekrx-29">
          <mxGeometry x="31.250000000000004" width="2718.75" height="20" as="geometry" />
        </mxCell>
        <mxCell id="njGRdfHwuPuBK8i6Ekrx-31" value="handle()" style="verticalAlign=bottom;endArrow=block;edgeStyle=elbowEdgeStyle;elbow=vertical;curved=0;rounded=0;" edge="1" parent="1" source="njGRdfHwuPuBK8i6Ekrx-1" target="njGRdfHwuPuBK8i6Ekrx-2">
          <mxGeometry relative="1" as="geometry">
            <Array as="points">
              <mxPoint x="205" y="127" />
            </Array>
          </mxGeometry>
        </mxCell>
        <mxCell id="njGRdfHwuPuBK8i6Ekrx-32" value="getAll()" style="verticalAlign=bottom;endArrow=block;edgeStyle=elbowEdgeStyle;elbow=vertical;curved=0;rounded=0;" edge="1" parent="1" source="njGRdfHwuPuBK8i6Ekrx-2" target="njGRdfHwuPuBK8i6Ekrx-4">
          <mxGeometry relative="1" as="geometry">
            <Array as="points">
              <mxPoint x="423" y="179" />
            </Array>
          </mxGeometry>
        </mxCell>
        <mxCell id="njGRdfHwuPuBK8i6Ekrx-33" value="findAll()" style="verticalAlign=bottom;endArrow=block;edgeStyle=elbowEdgeStyle;elbow=vertical;curved=0;rounded=0;" edge="1" parent="1" source="njGRdfHwuPuBK8i6Ekrx-4" target="njGRdfHwuPuBK8i6Ekrx-15">
          <mxGeometry relative="1" as="geometry">
            <Array as="points">
              <mxPoint x="1121" y="231" />
            </Array>
          </mxGeometry>
        </mxCell>
        <mxCell id="njGRdfHwuPuBK8i6Ekrx-34" value="return data" style="verticalAlign=bottom;endArrow=block;edgeStyle=elbowEdgeStyle;elbow=vertical;curved=0;rounded=0;dashed=1;dashPattern=2 3;" edge="1" parent="1" source="njGRdfHwuPuBK8i6Ekrx-14" target="njGRdfHwuPuBK8i6Ekrx-4">
          <mxGeometry relative="1" as="geometry">
            <Array as="points">
              <mxPoint x="1119" y="283" />
            </Array>
          </mxGeometry>
        </mxCell>
        <mxCell id="njGRdfHwuPuBK8i6Ekrx-35" value="return blueprints" style="verticalAlign=bottom;endArrow=block;edgeStyle=elbowEdgeStyle;elbow=vertical;curved=0;rounded=0;dashed=1;dashPattern=2 3;" edge="1" parent="1" source="njGRdfHwuPuBK8i6Ekrx-4" target="njGRdfHwuPuBK8i6Ekrx-2">
          <mxGeometry relative="1" as="geometry">
            <Array as="points">
              <mxPoint x="421" y="335" />
            </Array>
          </mxGeometry>
        </mxCell>
        <mxCell id="njGRdfHwuPuBK8i6Ekrx-36" value="write(address, FALSE)" style="verticalAlign=bottom;endArrow=block;edgeStyle=elbowEdgeStyle;elbow=vertical;curved=0;rounded=0;" edge="1" parent="1" source="njGRdfHwuPuBK8i6Ekrx-2" target="njGRdfHwuPuBK8i6Ekrx-13">
          <mxGeometry relative="1" as="geometry">
            <Array as="points">
              <mxPoint x="904" y="433" />
            </Array>
          </mxGeometry>
        </mxCell>
        <mxCell id="njGRdfHwuPuBK8i6Ekrx-37" value="getAll()" style="verticalAlign=bottom;endArrow=block;edgeStyle=elbowEdgeStyle;elbow=vertical;curved=0;rounded=0;" edge="1" parent="1" source="njGRdfHwuPuBK8i6Ekrx-2" target="njGRdfHwuPuBK8i6Ekrx-6">
          <mxGeometry relative="1" as="geometry">
            <Array as="points">
              <mxPoint x="566" y="485" />
            </Array>
          </mxGeometry>
        </mxCell>
        <mxCell id="njGRdfHwuPuBK8i6Ekrx-38" value="findAll()" style="verticalAlign=bottom;endArrow=block;edgeStyle=elbowEdgeStyle;elbow=vertical;curved=0;rounded=0;" edge="1" parent="1" source="njGRdfHwuPuBK8i6Ekrx-6" target="njGRdfHwuPuBK8i6Ekrx-17">
          <mxGeometry relative="1" as="geometry">
            <Array as="points">
              <mxPoint x="1381" y="537" />
            </Array>
          </mxGeometry>
        </mxCell>
        <mxCell id="njGRdfHwuPuBK8i6Ekrx-39" value="return data" style="verticalAlign=bottom;endArrow=block;edgeStyle=elbowEdgeStyle;elbow=vertical;curved=0;rounded=0;dashed=1;dashPattern=2 3;" edge="1" parent="1" source="njGRdfHwuPuBK8i6Ekrx-16" target="njGRdfHwuPuBK8i6Ekrx-6">
          <mxGeometry relative="1" as="geometry">
            <Array as="points">
              <mxPoint x="1378" y="589" />
            </Array>
          </mxGeometry>
        </mxCell>
        <mxCell id="njGRdfHwuPuBK8i6Ekrx-40" value="return schedules" style="verticalAlign=bottom;endArrow=block;edgeStyle=elbowEdgeStyle;elbow=vertical;curved=0;rounded=0;dashed=1;dashPattern=2 3;" edge="1" parent="1" source="njGRdfHwuPuBK8i6Ekrx-5" target="njGRdfHwuPuBK8i6Ekrx-2">
          <mxGeometry relative="1" as="geometry">
            <Array as="points">
              <mxPoint x="563" y="641" />
            </Array>
          </mxGeometry>
        </mxCell>
        <mxCell id="njGRdfHwuPuBK8i6Ekrx-41" value="createReportByType(type, recordingDate)" style="verticalAlign=bottom;endArrow=block;edgeStyle=elbowEdgeStyle;elbow=vertical;curved=0;rounded=0;" edge="1" parent="1" source="njGRdfHwuPuBK8i6Ekrx-2" target="njGRdfHwuPuBK8i6Ekrx-8">
          <mxGeometry relative="1" as="geometry">
            <Array as="points">
              <mxPoint x="693" y="739" />
            </Array>
          </mxGeometry>
        </mxCell>
        <mxCell id="njGRdfHwuPuBK8i6Ekrx-42" value="create(report)" style="verticalAlign=bottom;endArrow=block;edgeStyle=elbowEdgeStyle;elbow=vertical;curved=0;rounded=0;" edge="1" parent="1" source="njGRdfHwuPuBK8i6Ekrx-8" target="njGRdfHwuPuBK8i6Ekrx-19">
          <mxGeometry relative="1" as="geometry">
            <Array as="points">
              <mxPoint x="1633" y="791" />
            </Array>
          </mxGeometry>
        </mxCell>
        <mxCell id="njGRdfHwuPuBK8i6Ekrx-43" value="save(report)" style="verticalAlign=bottom;endArrow=block;edgeStyle=elbowEdgeStyle;elbow=vertical;curved=0;rounded=0;" edge="1" parent="1" source="njGRdfHwuPuBK8i6Ekrx-19" target="njGRdfHwuPuBK8i6Ekrx-22">
          <mxGeometry relative="1" as="geometry">
            <Array as="points">
              <mxPoint x="2299" y="843" />
            </Array>
          </mxGeometry>
        </mxCell>
        <mxCell id="njGRdfHwuPuBK8i6Ekrx-44" value="return result" style="verticalAlign=bottom;endArrow=block;edgeStyle=elbowEdgeStyle;elbow=vertical;curved=0;rounded=0;dashed=1;dashPattern=2 3;" edge="1" parent="1" source="njGRdfHwuPuBK8i6Ekrx-21" target="njGRdfHwuPuBK8i6Ekrx-19">
          <mxGeometry relative="1" as="geometry">
            <Array as="points">
              <mxPoint x="2297" y="895" />
            </Array>
          </mxGeometry>
        </mxCell>
        <mxCell id="njGRdfHwuPuBK8i6Ekrx-45" value="return result" style="verticalAlign=bottom;endArrow=block;edgeStyle=elbowEdgeStyle;elbow=vertical;curved=0;rounded=0;dashed=1;dashPattern=2 3;" edge="1" parent="1" source="njGRdfHwuPuBK8i6Ekrx-18" target="njGRdfHwuPuBK8i6Ekrx-8">
          <mxGeometry relative="1" as="geometry">
            <Array as="points">
              <mxPoint x="1631" y="947" />
            </Array>
          </mxGeometry>
        </mxCell>
        <mxCell id="njGRdfHwuPuBK8i6Ekrx-46" value="return result" style="verticalAlign=bottom;endArrow=block;edgeStyle=elbowEdgeStyle;elbow=vertical;curved=0;rounded=0;dashed=1;dashPattern=2 3;" edge="1" parent="1" source="njGRdfHwuPuBK8i6Ekrx-7" target="njGRdfHwuPuBK8i6Ekrx-2">
          <mxGeometry relative="1" as="geometry">
            <Array as="points">
              <mxPoint x="691" y="999" />
            </Array>
          </mxGeometry>
        </mxCell>
        <mxCell id="njGRdfHwuPuBK8i6Ekrx-47" value="createReportRows(response, reportId, schedulesOfType)" style="verticalAlign=bottom;endArrow=block;edgeStyle=elbowEdgeStyle;elbow=vertical;curved=0;rounded=0;" edge="1" parent="1" source="njGRdfHwuPuBK8i6Ekrx-2" target="njGRdfHwuPuBK8i6Ekrx-9">
          <mxGeometry relative="1" as="geometry">
            <Array as="points">
              <mxPoint x="693" y="1051" />
            </Array>
          </mxGeometry>
        </mxCell>
        <mxCell id="njGRdfHwuPuBK8i6Ekrx-48" value="create(row, reportId)" style="verticalAlign=bottom;endArrow=block;edgeStyle=elbowEdgeStyle;elbow=vertical;curved=0;rounded=0;" edge="1" parent="1" source="njGRdfHwuPuBK8i6Ekrx-9" target="njGRdfHwuPuBK8i6Ekrx-24">
          <mxGeometry relative="1" as="geometry">
            <Array as="points">
              <mxPoint x="1863" y="1103" />
            </Array>
          </mxGeometry>
        </mxCell>
        <mxCell id="njGRdfHwuPuBK8i6Ekrx-49" value="save(reportRow)" style="verticalAlign=bottom;endArrow=block;edgeStyle=elbowEdgeStyle;elbow=vertical;curved=0;rounded=0;" edge="1" parent="1" source="njGRdfHwuPuBK8i6Ekrx-24" target="njGRdfHwuPuBK8i6Ekrx-26">
          <mxGeometry relative="1" as="geometry">
            <Array as="points">
              <mxPoint x="2773" y="1155" />
            </Array>
          </mxGeometry>
        </mxCell>
        <mxCell id="njGRdfHwuPuBK8i6Ekrx-50" value="return result" style="verticalAlign=bottom;endArrow=block;edgeStyle=elbowEdgeStyle;elbow=vertical;curved=0;rounded=0;dashed=1;dashPattern=2 3;" edge="1" parent="1" source="njGRdfHwuPuBK8i6Ekrx-25" target="njGRdfHwuPuBK8i6Ekrx-24">
          <mxGeometry relative="1" as="geometry">
            <Array as="points">
              <mxPoint x="2770" y="1207" />
            </Array>
          </mxGeometry>
        </mxCell>
        <mxCell id="njGRdfHwuPuBK8i6Ekrx-51" value="return result" style="verticalAlign=bottom;endArrow=block;edgeStyle=elbowEdgeStyle;elbow=vertical;curved=0;rounded=0;dashed=1;dashPattern=2 3;" edge="1" parent="1" source="njGRdfHwuPuBK8i6Ekrx-23" target="njGRdfHwuPuBK8i6Ekrx-9">
          <mxGeometry relative="1" as="geometry">
            <Array as="points">
              <mxPoint x="1861" y="1259" />
            </Array>
          </mxGeometry>
        </mxCell>
        <mxCell id="njGRdfHwuPuBK8i6Ekrx-52" value="return result" style="verticalAlign=bottom;endArrow=block;edgeStyle=elbowEdgeStyle;elbow=vertical;curved=0;rounded=0;dashed=1;dashPattern=2 3;" edge="1" parent="1" source="njGRdfHwuPuBK8i6Ekrx-7" target="njGRdfHwuPuBK8i6Ekrx-2">
          <mxGeometry relative="1" as="geometry">
            <Array as="points">
              <mxPoint x="691" y="1311" />
            </Array>
          </mxGeometry>
        </mxCell>
        <mxCell id="njGRdfHwuPuBK8i6Ekrx-53" value="process(type, report, rows)" style="verticalAlign=bottom;endArrow=block;edgeStyle=elbowEdgeStyle;elbow=vertical;curved=0;rounded=0;" edge="1" parent="1" source="njGRdfHwuPuBK8i6Ekrx-2" target="njGRdfHwuPuBK8i6Ekrx-12">
          <mxGeometry relative="1" as="geometry">
            <Array as="points">
              <mxPoint x="798" y="1363" />
            </Array>
          </mxGeometry>
        </mxCell>
        <mxCell id="njGRdfHwuPuBK8i6Ekrx-54" value="return result" style="verticalAlign=bottom;endArrow=block;edgeStyle=elbowEdgeStyle;elbow=vertical;curved=0;rounded=0;dashed=1;dashPattern=2 3;" edge="1" parent="1" source="njGRdfHwuPuBK8i6Ekrx-11" target="njGRdfHwuPuBK8i6Ekrx-2">
          <mxGeometry relative="1" as="geometry">
            <Array as="points">
              <mxPoint x="796" y="1415" />
            </Array>
          </mxGeometry>
        </mxCell>
        <mxCell id="njGRdfHwuPuBK8i6Ekrx-55" value="updateSumJson(report, sums)" style="verticalAlign=bottom;endArrow=block;edgeStyle=elbowEdgeStyle;elbow=vertical;curved=0;rounded=0;" edge="1" parent="1" source="njGRdfHwuPuBK8i6Ekrx-2" target="njGRdfHwuPuBK8i6Ekrx-10">
          <mxGeometry relative="1" as="geometry">
            <Array as="points">
              <mxPoint x="693" y="1467" />
            </Array>
          </mxGeometry>
        </mxCell>
        <mxCell id="njGRdfHwuPuBK8i6Ekrx-56" value="update(id, report)" style="verticalAlign=bottom;endArrow=block;edgeStyle=elbowEdgeStyle;elbow=vertical;curved=0;rounded=0;" edge="1" parent="1" source="njGRdfHwuPuBK8i6Ekrx-10" target="njGRdfHwuPuBK8i6Ekrx-20">
          <mxGeometry relative="1" as="geometry">
            <Array as="points">
              <mxPoint x="1633" y="1519" />
            </Array>
          </mxGeometry>
        </mxCell>
        <mxCell id="njGRdfHwuPuBK8i6Ekrx-57" value="return result" style="verticalAlign=bottom;endArrow=block;edgeStyle=elbowEdgeStyle;elbow=vertical;curved=0;rounded=0;dashed=1;dashPattern=2 3;" edge="1" parent="1" source="njGRdfHwuPuBK8i6Ekrx-18" target="njGRdfHwuPuBK8i6Ekrx-10">
          <mxGeometry relative="1" as="geometry">
            <Array as="points">
              <mxPoint x="1631" y="1571" />
            </Array>
          </mxGeometry>
        </mxCell>
        <mxCell id="njGRdfHwuPuBK8i6Ekrx-58" value="return result" style="verticalAlign=bottom;endArrow=block;edgeStyle=elbowEdgeStyle;elbow=vertical;curved=0;rounded=0;dashed=1;dashPattern=2 3;" edge="1" parent="1" source="njGRdfHwuPuBK8i6Ekrx-7" target="njGRdfHwuPuBK8i6Ekrx-2">
          <mxGeometry relative="1" as="geometry">
            <Array as="points">
              <mxPoint x="691" y="1623" />
            </Array>
          </mxGeometry>
        </mxCell>
      </root>
    </mxGraphModel>
  </diagram>
</mxfile>
